<?xml version="1.0" encoding="UTF-8" standalone="no"?>
<!-- Created with Inkscape (http://www.inkscape.org/) -->

<svg
   width="208.06943mm"
   height="57.145779mm"
   viewBox="0 0 208.06943 57.145779"
   version="1.1"
   id="svg1"
   inkscape:version="1.3.2 (091e20e, 2023-11-25, custom)"
   sodipodi:docname="logo.svg"
   xmlns:inkscape="http://www.inkscape.org/namespaces/inkscape"
   xmlns:sodipodi="http://sodipodi.sourceforge.net/DTD/sodipodi-0.dtd"
   xmlns="http://www.w3.org/2000/svg"
   xmlns:svg="http://www.w3.org/2000/svg">
  <sodipodi:namedview
     id="namedview1"
     pagecolor="#505050"
     bordercolor="#ffffff"
     borderopacity="1"
     inkscape:showpageshadow="0"
     inkscape:pageopacity="0"
     inkscape:pagecheckerboard="1"
     inkscape:deskcolor="#505050"
     inkscape:document-units="mm"
     inkscape:zoom="0.97531385"
     inkscape:cx="251.71385"
     inkscape:cy="145.0815"
     inkscape:window-width="1920"
     inkscape:window-height="991"
     inkscape:window-x="-9"
     inkscape:window-y="-9"
     inkscape:window-maximized="1"
     inkscape:current-layer="layer1" />
  <defs
     id="defs1" />
  <g
     inkscape:label="Layer 1"
     inkscape:groupmode="layer"
     id="layer1"
     transform="translate(-71.958571,-106.37485)">
    <text
       xml:space="preserve"
       style="font-weight:500;font-size:31.5887px;line-height:normal;font-family:'Graphik Trial';-inkscape-font-specification:'Graphik Trial, Medium';text-decoration-color:#000000;display:none;fill:#999999;stroke:none;stroke-width:7.95651;stroke-linecap:round;stroke-linejoin:round"
       x="80.102501"
       y="155.98288"
       id="text1"
       sodipodi:insensitive="true"><tspan
         sodipodi:role="line"
         id="tspan1"
         style="font-style:italic;font-variant:normal;font-weight:900;font-stretch:normal;font-family:GothamSSm;-inkscape-font-specification:'GothamSSm Heavy Italic';stroke:none;stroke-width:7.95651"
         x="0"
         y="0">JSTEROIDS</tspan></text>
    <path
       id="path1"
       style="display:none;opacity:1;fill:#ffffff;stroke:#000000;stroke-width:0.499999;stroke-linecap:round;stroke-linejoin:round"
       d="M 22.244976,141.47261 A 28.89134,28.89134 0 0 1 -6.6463647,170.36395 28.89134,28.89134 0 0 1 -35.537705,141.47261 28.89134,28.89134 0 0 1 -6.6463647,112.58127 28.89134,28.89134 0 0 1 22.244976,141.47261 Z"
       sodipodi:insensitive="true" />
    <path
       style="font-variation-settings:normal;display:none;opacity:1;fill:#ffffff;fill-opacity:1;stroke:#000000;stroke-width:0.499999;stroke-linecap:round;stroke-linejoin:round;stroke-miterlimit:4;stroke-dasharray:none;stroke-dashoffset:0;stroke-opacity:1"
       d="m 11.6188,119.08749 -41.730902,-30.650147 5.968165,11.936327 -48.830177,-40.691873 26.31392,39.335474 -14.106569,-10.308648 17.361931,32.553627 -12.750167,-11.12249 23.516629,43.94733 z"
       id="path2"
       sodipodi:nodetypes="cccccccccc"
       sodipodi:insensitive="true" />
    <g
       id="g3">
      <path
         id="text1-0"
         style="font-style:italic;font-weight:900;font-size:31.5887px;font-family:GothamSSm;-inkscape-font-specification:'GothamSSm Heavy Italic';fill:#ffffff;stroke:#000000;stroke-width:0.5;stroke-linecap:round;stroke-linejoin:round;stroke-dasharray:none"
         d="m 202.5293,125.71094 c -4.42109,0.10023 -8.7738,1.73204 -12.22071,4.49218 -3.3569,-3.15569 -8.14732,-4.18243 -12.63238,-4.07357 -3.18153,-0.0227 -6.38182,-0.10002 -9.54926,0.19857 -0.56216,0.21787 -1.14481,0.27809 -1.70076,0.0157 -2.85639,-0.61856 -5.78603,-0.0488 -8.67463,-0.23351 -4.15783,0.0161 -8.32666,-0.12435 -12.47226,0.27255 -2.22194,-0.51976 -4.52781,-0.21975 -6.78732,-0.26524 -5.31088,0.0467 -10.63823,-0.17599 -15.93654,0.22157 -0.75493,0.1872 -1.47608,0.51567 -2.11208,0.96359 -5.03548,-2.07244 -10.92589,-2.13566 -15.92578,0.0801 -2.25691,-1.55418 -5.11297,-1.34048 -7.714737,-1.29947 -2.660597,-0.0935 -5.693357,0.44122 -7.381305,2.71144 -1.86948,2.39102 -2.039308,5.52223 -2.956059,8.3027 -0.463583,1.7283 -0.903453,3.44691 -1.404932,5.16424 -2.715998,-0.78914 -5.730979,0.2418 -7.628775,2.28078 -1.777126,1.62644 -3.971313,3.08444 -4.815935,5.44722 -0.95498,2.673 -0.177381,5.80912 1.835332,7.79268 4.53089,5.29406 12.566707,6.8248 18.927847,4.23599 1.370733,-0.54834 2.678495,-1.26916 3.84364,-2.17855 6.527304,4.23796 15.540754,4.64488 22.189454,0.45704 0.40015,-0.3765 0.7106,0.59039 1.14116,0.76112 1.89023,1.61159 4.50138,2.13925 6.92212,1.81584 2.67855,0.0321 5.69728,0.12607 7.8604,-1.73177 0.38217,-0.22772 0.69183,-1.0049 1.0353,-0.3491 1.91051,1.80723 4.68801,2.45341 7.24688,2.06727 5.83335,-0.073 11.68789,0.22458 17.5039,-0.30647 0.64583,-0.24344 1.27794,0.32347 1.95214,0.24343 2.21762,0.21661 4.45397,0.0344 6.67255,-0.0207 1.30661,-0.14162 2.59484,-0.6952 3.6636,-1.35858 2.05303,1.53553 4.74019,1.56906 7.18749,1.42939 2.48178,0.0291 5.2236,0.241 7.3336,-1.33089 0.62618,-0.4297 1.18452,-0.96044 1.63906,-1.5692 5.92405,4.21264 14.23337,4.32841 20.52539,0.85351 1.95405,1.92879 4.90545,2.36891 7.53594,2.05994 1.88243,0.006 3.83728,0.10816 5.62422,-0.59119 2.79889,1.14948 5.86077,0.35859 8.78082,0.6031 5.38175,0.0901 11.06562,-0.40307 15.74057,-3.31437 0.4165,-0.44145 0.7463,0.32134 1.1583,0.42416 6.51828,4.09366 15.41734,4.46444 21.9929,0.30106 4.84624,-3.26898 7.5451,-9.75796 5.72643,-15.4285 -0.18225,-0.62444 -0.41656,-1.23504 -0.70566,-1.81787 1.72504,-1.8011 3.70456,-3.78848 3.80347,-6.44517 0.2446,-2.73503 -1.32038,-5.35822 -3.53944,-6.86732 -3.90053,-3.02971 -9.01254,-4.22901 -13.88764,-3.92956 -3.84015,0.2922 -7.66622,1.72145 -10.51702,4.35533 -3.79231,-3.16423 -8.90378,-4.20463 -13.73786,-4.02583 -2.84485,0.005 -5.75411,-0.20804 -8.5405,0.45236 -0.40845,0.29268 -0.86885,-0.25413 -1.32142,-0.23046 -2.43647,-0.52367 -4.94281,-0.16211 -7.4081,-0.20941 -2.3875,0.21864 -4.76723,1.52013 -5.91594,3.6774 -3.4168,-2.84919 -7.92995,-4.25433 -12.35547,-4.10351 z m -101.70899,19.29687 c 0.58062,0.33266 -0.56876,0.40147 -0.27539,-0.0293 0.0929,-0.0423 0.18349,0.024 0.27539,0.0293 z m 152.38477,0.0449 c 0.44011,0.30856 -0.26036,1.23317 -0.46485,0.55079 0.10605,-0.25139 0.13609,-0.52747 0.46485,-0.55079 z" />
      <path
         id="text1-0-7"
         style="font-style:italic;font-weight:900;font-size:31.5887px;font-family:GothamSSm;-inkscape-font-specification:'GothamSSm Heavy Italic';fill:#d40000;stroke:#000000;stroke-width:1;stroke-linecap:round;stroke-linejoin:round;stroke-dasharray:none"
         d="m 202.31836,129.41797 c -4.82087,0.15409 -9.43765,2.62822 -12.43555,6.37305 -1.28191,-2.8823 -4.10353,-4.86385 -7.15663,-5.47185 -3.72426,-0.85813 -7.56897,-0.37556 -11.35038,-0.50236 -1.3795,-0.0121 -3.04605,-0.10446 -4.08478,0.92342 -1.54834,-1.37644 -3.74159,-0.88541 -5.62069,-0.93929 -5.06659,0.0483 -10.13826,-0.0635 -15.20158,0.0936 -0.48554,0.0398 -0.84351,0.70809 -1.30419,0.28086 -1.77564,-0.73608 -3.7294,-0.22053 -5.58683,-0.36527 -5.32313,0.008 -10.64929,-0.046 -15.97031,0.0688 -1.04338,0.20306 -1.87504,1.00651 -2.3457,1.92968 -4.45223,-2.654 -10.18008,-3.15443 -14.98828,-1.1875 -0.88907,0.39545 -1.74497,0.87272 -2.52149,1.46094 -0.63502,-1.78377 -2.7301,-2.5694 -4.494138,-2.26367 -1.982512,0.069 -4.062617,-0.29369 -5.963742,0.41296 -1.736052,0.91561 -1.933428,3.04473 -2.422976,4.73157 -1.173246,4.20961 -2.127072,8.49291 -3.582032,12.61523 -0.512956,0.53428 -1.131632,-0.0885 -1.432324,-0.5293 -0.95931,-1.09415 -2.57118,-1.80449 -3.971972,-1.12304 -1.738814,0.71511 -2.822608,2.35167 -4.328125,3.41016 -1.197505,0.96798 -2.140262,2.60508 -1.478516,4.15039 0.783192,2.13159 2.751825,3.54091 4.656562,4.6143 4.822724,2.4548 11.239319,1.81006 15.182544,-2.00333 0.395971,-0.2699 0.735618,-1.01753 1.092021,-1.07647 3.201688,3.06949 7.727398,4.53256 12.114148,4.51156 3.59106,-0.0608 7.41106,-1.05823 9.92543,-3.77458 2.49504,-2.55523 3.67598,-6.45036 2.55513,-9.90279 -0.37767,-1.21316 -1.0116,-2.35016 -1.86568,-3.29252 0.59328,-0.41349 1.05493,-0.97909 1.5293,-1.51758 1.27405,0.72679 2.78965,0.53404 4.1914,0.50391 -1.23365,4.77597 -2.6843,9.50963 -3.72851,14.33594 0.0791,2.28234 2.63817,3.7261 4.73047,3.26953 2.02221,-0.11621 4.18861,0.36205 6.09041,-0.51082 1.71948,-1.07187 1.80598,-3.28143 2.36211,-5.02704 1.07442,-4.01668 2.14884,-8.03336 3.22326,-12.05003 1.13864,-9.3e-4 2.27766,0.0157 3.41601,-0.0156 -1.23344,4.77355 -2.66798,9.50989 -3.71093,14.33399 0.0785,2.27396 2.6197,3.71823 4.70703,3.27343 5.79644,-0.031 11.59754,0.0915 17.39062,-0.10742 0.52485,-0.11582 0.9832,-0.41964 1.38672,-0.76367 1.2797,1.10665 3.0609,0.94595 4.625,0.85351 1.69022,-0.0119 3.54675,0.27541 5.08203,-0.58398 1.4441,-0.99798 1.65445,-2.85917 2.08789,-4.41797 0.68664,1.48548 1.23053,3.14991 2.43724,4.29836 1.71394,1.17601 3.86665,0.57522 5.79674,0.70475 1.67894,0.0144 3.72303,0.29847 4.9828,-1.07372 1.28442,-1.45494 0.97087,-3.70172 -0.096,-5.18302 -0.46149,-0.99293 -0.92297,-1.98586 -1.38446,-2.97879 0.58959,-0.3082 1.136,-0.69136 1.66602,-1.0918 0.8208,4.41349 4.06058,8.29924 8.32067,9.77311 5.64819,2.13654 12.39615,0.70495 16.81605,-3.37076 -0.41374,1.72856 0.92102,3.39155 2.55273,3.8125 1.37663,0.41077 2.8074,-0.024 4.21315,0.13378 1.41484,-0.009 3.01141,0.13445 4.23412,-0.70214 0.37434,-0.27228 0.61575,-0.87429 0.96484,-0.23242 1.1075,0.98869 2.66979,1.10553 4.07379,0.91991 5.25843,-0.0766 10.74603,0.51728 15.73805,-1.52396 1.73492,-0.70381 3.36635,-1.67661 4.78386,-2.90181 2.19175,2.29549 5.20111,3.70326 8.27026,4.38735 3.84233,0.81922 8.03727,0.49022 11.53767,-1.36733 3.70948,-2.10925 6.18949,-6.55111 5.33291,-10.83689 -0.28941,-1.6133 -1.05467,-3.15612 -2.13107,-4.36673 1.36525,-1.02582 2.26875,-2.52088 3.54241,-3.64752 1.11473,-1.10606 1.81649,-2.91335 0.91462,-4.36224 -1.05175,-1.88143 -3.10122,-2.87037 -4.96484,-3.76758 -4.03336,-1.63323 -8.7434,-1.85801 -12.80423,-0.1989 -2.48996,1.05224 -4.71051,2.90004 -5.91843,5.34734 -2.1903,-3.71057 -6.47939,-5.74611 -10.68583,-5.97234 -3.18157,-0.26257 -6.38026,-0.0817 -9.56587,-0.0944 -0.93286,0.0694 -1.84935,0.49497 -2.42213,1.2484 -1.0415,-1.23863 -2.7826,-1.48054 -4.29993,-1.27112 -1.89975,0.0765 -3.94683,-0.33217 -5.72351,0.51135 -1.69732,1.08948 -1.78644,3.28431 -2.3424,5.02938 -0.22961,0.85153 -0.45923,1.70307 -0.68885,2.55461 -1.43508,-3.82818 -4.78094,-6.84307 -8.7321,-7.88989 -1.68973,-0.49603 -3.46345,-0.68385 -5.22102,-0.60816 z m 0.37695,11.80469 c 1.18221,-0.11357 2.14944,1.08243 1.89603,2.21948 -0.003,2.22018 -1.9584,4.59508 -4.31595,4.26684 -0.99682,-0.16109 -1.58481,-1.18255 -1.43314,-2.14001 0.007,-2.08613 1.62321,-4.35624 3.85306,-4.34631 z m 36.5586,0.39257 c 0.76424,0.0248 1.85017,0.31742 1.79858,1.27678 0.22907,2.14297 -1.66014,4.03049 -3.70874,4.28768 0.50651,-1.85938 1.01302,-3.71875 1.51953,-5.57813 0.13021,0.005 0.26042,0.009 0.39063,0.0137 z m -138.36524,3.51954 c 0.58401,0.41851 -0.5765,0.89794 -0.065,0.0993 0.0301,0.024 0.0161,-0.252 0.065,-0.0993 z m 152.24805,0.28125 c 0.33817,0.61799 -0.6874,-0.13611 0,0 z" />
      <path
         style="font-style:italic;font-weight:900;font-size:31.5887px;font-family:GothamSSm;-inkscape-font-specification:'GothamSSm Heavy Italic';fill:#ffcc00;stroke:#000000;stroke-width:1;stroke-linecap:round;stroke-linejoin:round;stroke-dasharray:none"
         d="m 86.67295,156.36194 c 3.032516,0 5.338491,-0.85289 7.012692,-2.4955 1.611021,-1.61103 2.463921,-3.50635 3.379991,-6.88634 l 3.759057,-13.99379 h -6.12821 l -3.443168,12.79342 c -0.694952,2.59027 -1.137193,3.41158 -1.768967,4.10653 -0.72654,0.72654 -1.579435,1.07402 -2.590274,1.07402 -1.484669,0 -2.558684,-0.63178 -3.790644,-2.2428 l -4.169708,3.66429 c 1.642612,2.55868 4.580361,3.98017 7.739231,3.98017 z m 22.52276,0 c 3.12728,0 5.74915,-0.94766 7.51811,-2.71662 1.35832,-1.35832 2.11645,-3.06411 2.11645,-5.18055 0,-3.44317 -2.43233,-4.99102 -5.8755,-6.34933 -3.15887,-1.26355 -3.88541,-1.61102 -3.88541,-2.62186 0,-0.97925 0.94766,-1.76897 2.68504,-1.76897 2.30597,0 4.16971,0.97925 5.93867,2.49551 l 3.85382,-4.16971 c -2.14803,-2.14803 -5.21213,-3.44317 -9.25548,-3.44317 -3.15887,0 -5.78074,1.01084 -7.51811,2.74822 -1.35832,1.29514 -2.11645,3.00093 -2.11645,5.0226 0,3.37999 2.40074,4.99102 5.90709,6.31774 3.15887,1.26355 3.85382,1.70579 3.85382,2.68504 0,1.13719 -1.13719,1.86373 -2.7798,1.86373 -2.5271,0 -4.80149,-1.07401 -6.94952,-3.12728 l -4.043357,4.04336 c 2.400747,2.68504 6.033447,4.20129 10.550627,4.20129 z m 15.66805,-0.37906 h 6.12821 l 4.70671,-17.59491 h 6.91793 l 1.45308,-5.40166 h -19.93247 l -1.45308,5.40166 h 6.91792 z m 16.11025,0 h 18.32145 l 1.3899,-5.21214 h -12.288 l 1.04242,-3.91699 h 10.92969 l 1.29514,-4.89625 h -10.8981 l 1.01084,-3.75906 h 12.09847 l 1.42149,-5.21213 h -18.1635 z m 36.45336,0 h 6.75998 l -3.6327,-7.77082 c 2.43233,-0.66336 3.88541,-1.64261 4.86466,-2.62186 1.48467,-1.42149 2.17962,-3.3484 2.17962,-5.52802 0,-1.89533 -0.5686,-3.47476 -1.80056,-4.70672 -1.54784,-1.54785 -3.98017,-2.36915 -7.77082,-2.36915 h -8.62371 l -6.1598,22.99657 h 6.09662 l 1.89532,-7.04428 h 2.71663 0.31589 z m -4.86466,-11.90894 1.54785,-5.78073 h 3.6327 c 1.3899,0 2.36915,0.2843 2.90616,0.85289 0.41065,0.41066 0.63177,0.91608 0.63177,1.57944 0,0.78972 -0.2843,1.48467 -0.82131,2.02167 -0.85289,0.8529 -2.30597,1.32673 -4.07494,1.32673 z m 30.57786,-11.49829 c -3.94859,0 -7.2654,1.54785 -9.69773,3.98018 -2.5271,2.5271 -4.01177,6.00185 -4.01177,9.57138 0,5.81232 4.39083,10.26632 10.86652,10.26632 3.94858,0 7.2654,-1.54784 9.69773,-3.98017 2.52709,-2.5271 4.01176,-6.00186 4.01176,-9.57138 0,-5.81232 -4.39083,-10.26633 -10.86651,-10.26633 z m -2.27439,18.32145 c -3.41158,0 -5.21213,-2.21121 -5.21213,-5.24373 0,-2.02167 0.85289,-4.1697 2.33756,-5.65437 1.16878,-1.1372 2.71663,-1.92691 4.58036,-1.92691 3.41158,0 5.21214,2.21121 5.21214,5.24372 0,2.02168 -0.88448,4.16971 -2.36915,5.65438 -1.16879,1.13719 -2.68504,1.92691 -4.54878,1.92691 z m 13.83588,5.08578 h 6.12821 l 6.15979,-22.99657 h -6.09662 z m 10.8981,0 h 9.12913 c 5.33849,0 9.25549,-1.45308 12.0353,-4.23289 2.49551,-2.4955 3.79064,-5.62278 3.79064,-9.06595 0,-2.8114 -0.8213,-5.05419 -2.4955,-6.7284 -1.76897,-1.76896 -4.54878,-2.96933 -9.00278,-2.96933 h -7.29699 z m 17.50014,-16.07865 c 0.78972,0.78972 1.16878,1.86373 1.16878,3.22205 0,1.92691 -0.75813,3.69588 -2.05326,4.99101 -1.61103,1.61103 -4.01177,2.43233 -6.79157,2.43233 h -2.27439 l 3.28522,-12.13006 h 1.99009 c 2.36915,0 3.75906,0.50542 4.67513,1.48467 z m 17.59492,16.45771 c 3.12728,0 5.74915,-0.94766 7.51811,-2.71662 1.35832,-1.35832 2.11645,-3.06411 2.11645,-5.18055 0,-3.44317 -2.43233,-4.99102 -5.8755,-6.34933 -3.15887,-1.26355 -3.88541,-1.61102 -3.88541,-2.62186 0,-0.97925 0.94766,-1.76897 2.68504,-1.76897 2.30597,0 4.16971,0.97925 5.93867,2.49551 l 3.85382,-4.16971 c -2.14803,-2.14803 -5.21213,-3.44317 -9.25548,-3.44317 -3.15887,0 -5.78074,1.01084 -7.51811,2.74822 -1.35832,1.29514 -2.11645,3.00093 -2.11645,5.0226 0,3.37999 2.40074,4.99102 5.90709,6.31774 3.15887,1.26355 3.85382,1.70579 3.85382,2.68504 0,1.13719 -1.13719,1.86373 -2.77981,1.86373 -2.52709,0 -4.80148,-1.07401 -6.94951,-3.12728 l -4.04335,4.04336 c 2.40074,2.68504 6.03344,4.20129 10.55062,4.20129 z"
         id="text1-0-9"
         aria-label="JSTEROIDS" />
    </g>
    <g
       id="g2"
       transform="matrix(0.4483014,0,0,0.4483014,203.84483,80.119287)">
      <path
         id="path2-6"
         style="font-variation-settings:normal;display:inline;fill:#ffcc00;fill-opacity:1;stroke:none;stroke-width:0.499999;stroke-linecap:round;stroke-linejoin:round;stroke-miterlimit:4;stroke-dasharray:none;stroke-dashoffset:0;stroke-opacity:1"
         d="m -44.023438,97.248047 c 1.324274,1.991657 -0.554354,4.812083 -2.820312,4.824223 -1.862239,-0.0704 -3.113704,-1.66552 -4.580078,-2.601567 3.690035,6.932667 7.42769,13.842037 11.017578,20.826177 0.74125,2.45461 -2.260071,4.76121 -4.507812,3.74414 -0.610329,-0.35196 0.322774,0.79248 0.38518,1.09568 4.299341,8.03386 8.598682,16.06772 12.898023,24.10158 12.671224,-10.02213 25.3424475,-20.04427 38.0136715,-30.0664 -9.2845052,-6.81902 -18.5690105,-13.63803 -27.8535155,-20.457036 0.539212,1.096526 0.593754,2.513106 -0.308594,3.441406 -1.248627,1.45984 -3.846548,1.69897 -5.084615,0.10197 -10.409295,-8.679821 -20.81859,-17.359645 -31.227885,-26.03947 4.689453,7.009766 9.378906,14.019531 14.068359,21.029297 z" />
      <path
         id="path1-5"
         style="display:inline;fill:#ff2a2a;stroke:none;stroke-width:0.499999;stroke-linecap:round;stroke-linejoin:round"
         d="m -7.5273438,116.31055 c -5.4211542,0.17523 -10.8309882,2.23103 -15.1050512,5.7273 -2.85753,2.33351 -5.0733,5.19566 -6.674595,8.51168 -2.749936,5.65653 -3.301911,12.35158 -1.374495,18.35197 1.55518,5.07287 4.80627,9.74215 9.168783,12.87194 5.132798,3.80432 11.7616007,5.4819 18.0249261,4.65406 5.5019639,-0.63383 10.7904681,-3.25855 14.7065259,-7.24781 3.995969,-3.99905 6.616678,-9.42193 7.160156,-15.09571 0.549016,-5.18018 -0.544397,-10.68563 -3.28125,-15.32421 -4.189768,-7.19117 -12.1069203,-12.11229 -20.4564899,-12.41624 -0.721948,-0.041 -1.4456284,-0.042 -2.1685099,-0.033 z" />
      <path
         id="path1-7"
         style="display:inline;fill:#ffffff;stroke:#000000;stroke-width:2.23064;stroke-linecap:round;stroke-linejoin:round;stroke-dasharray:none"
         d="m -72.974357,59.681628 26.314156,39.335584 -14.106632,-10.308415 17.362247,32.553573 -12.750643,-11.12284 23.516911,43.94771 0.03256,-0.0258 c 4.819294,9.95499 14.898984,16.28504 25.9591393,16.30236 15.9563658,2e-4 28.8917327,-12.93488 28.8917767,-28.89126 -9.58e-4,-8.67883 -3.903382,-16.8975 -10.628292,-22.38365 l 0.0021,-0.002 -0.06408,-0.047 c -0.72501,-0.58857 -1.478133,-1.14164 -2.2567095,-1.65726 L -30.111857,88.436979 -24.143746,100.3732 Z m 32.237825,35.833989 c 3.782051,3.140967 7.566783,6.326213 11.343494,9.498133 2.615191,2.81572 7.500912,2.60484 10.117729,-0.0956 3.543587,2.60196 7.087289,5.20377 10.6308754,7.80573 a 28.89134,28.89134 0 0 0 -26.1761804,22.69164 c -1.571503,-2.93994 -3.142936,-5.87967 -4.714441,-8.81962 2.212196,-1.61081 3.521859,-4.61968 2.671672,-7.29878 -2.322349,-4.76466 -4.799394,-9.45794 -7.359241,-14.09578 3.623234,-1.40255 5.497829,-6.287881 3.486092,-9.685713 z m 33.7343754,23.970633 c 7.45015718,-0.19272 14.8599951,3.76434 18.8443276,10.06243 1.79341,2.80243 2.94063,5.96943 3.344499,9.32295 0.860489,6.58513 -1.609694,13.5273 -6.3474163,18.20457 -4.4739472,4.54454 -11.0206245,6.84728 -17.3544962,6.29419 -1.8576215,-0.13953 -3.9062535,-0.62065 -5.5939735,-1.22008 -5.557469,-1.94533 -10.174923,-6.29646 -12.581661,-11.65459 -0.811659,-1.78133 -1.397626,-3.79245 -1.693954,-5.64823 -0.746418,-4.68883 0.151833,-9.59156 2.374016,-13.77487 3.62121,-6.92685 11.206888,-11.50467 19.0086584,-11.58637 z" />
    </g>
  </g>
</svg>
